<svg width="280" height="158" viewBox="0 0 280 158" fill="none" xmlns="http://www.w3.org/2000/svg">
<g clip-path="url(#clip0_31_2)">
<path fill-rule="evenodd" clip-rule="evenodd" d="M5.45606 0C5.45606 0 5.15216 2.70449 4.75817 7.14273C3.35452 22.9543 0.807323 60.7705 6.78357 76.6992C14.4373 97.099 26.6635 97.999 26.6635 97.999C26.6635 97.999 87.2971 56.9994 86.9989 58.2994C86.7007 59.5994 86.0049 53.2994 79.0469 41.5996C72.0889 29.8997 72.0306 5.69994 72.0306 0" fill="white"/>
<path fill-rule="evenodd" clip-rule="evenodd" d="M5.48275 -1.49127C6.3063 -1.40144 6.90109 -0.661006 6.81126 0.162537L5.3201 -0.000115514L3.82895 -0.162768C3.91878 -0.98631 4.65921 -1.5811 5.48275 -1.49127ZM30.3908 97.9796C30.3559 97.9717 30.3193 97.9632 30.2809 97.9542C29.8685 97.8569 29.2566 97.6938 28.4918 97.4354C26.9615 96.9183 24.8252 96.022 22.4526 94.5135C17.7244 91.5073 12.008 86.0402 8.28233 76.1694C6.43998 71.2883 5.38921 64.1306 4.88411 56.0155C4.38116 47.935 4.4257 39.0377 4.71119 30.7512C4.99655 22.4686 5.52181 14.818 5.97594 9.23707C6.20295 6.44719 6.41205 4.17599 6.56429 2.60337C6.6404 1.8171 6.70229 1.20555 6.74508 0.791222C6.76647 0.584062 6.78309 0.426215 6.79432 0.320495L6.80706 0.201363L6.81126 0.162537C6.81129 0.162235 6.81126 0.162537 5.3201 -0.000115514C3.82895 -0.162768 3.82901 -0.163324 3.82895 -0.162768L3.8243 -0.119828L3.81112 0.00352597C3.79958 0.112098 3.78265 0.272876 3.76095 0.483046C3.71754 0.903379 3.65501 1.52131 3.57825 2.31431C3.42472 3.90025 3.21422 6.18682 2.98582 8.99376C2.52912 14.6064 2.00038 22.3057 1.71297 30.6479C1.42569 38.9863 1.3787 47.9888 1.8899 56.2019C2.39895 64.3803 3.46802 71.91 5.47561 77.2288C9.44975 87.7578 15.6148 93.721 20.843 97.0451C23.4487 98.7018 25.8094 99.6957 27.5315 100.278C28.3929 100.569 29.0961 100.757 29.5922 100.874C29.8404 100.933 30.037 100.973 30.176 101C30.2456 101.013 30.3007 101.023 30.3407 101.03L30.3893 101.038L30.4049 101.041L30.4128 101.042C30.4137 101.042 30.4147 101.042 30.6418 99.5597L30.4147 101.042C30.7455 101.093 31.0838 101.032 31.3757 100.868L30.6418 99.5597C31.3757 100.868 31.3752 100.868 31.3757 100.868L31.3786 100.866L31.5467 100.772C31.659 100.709 31.8253 100.615 32.042 100.493C32.4755 100.248 33.1106 99.8885 33.9182 99.4292C35.5334 98.5106 37.8391 97.1922 40.6023 95.5922C46.1278 92.3927 53.488 88.0641 60.8185 83.5518C68.1423 79.0437 75.4645 74.3352 80.9013 70.3788C83.6133 68.4053 85.9004 66.5873 87.4903 65.0535C88.281 64.2908 88.9484 63.5519 89.4096 62.8618C89.8209 62.2465 90.2936 61.3446 90.1189 60.3698C89.0208 54.242 85.8896 48.5064 78.9254 36.8664C75.6207 31.3427 74.3658 23.666 73.9766 16.487C73.699 11.3677 73.8628 6.72578 73.9808 3.38209C74.0289 2.02118 74.0693 0.875332 74.0693 -0.000115514C74.0693 -0.828543 73.3977 -1.50012 72.5693 -1.50012C71.7409 -1.50012 71.0693 -0.828543 71.0693 -0.000115514C71.0693 0.736429 71.0327 1.77936 70.9879 3.05589C70.8701 6.41295 70.6956 11.3855 70.981 16.6494C71.3762 23.9387 72.6558 32.2303 76.351 38.4066C83.3363 50.082 86.1428 55.3387 87.1445 60.7812C87.1232 60.8376 87.0656 60.9701 86.9154 61.1949C86.626 61.6278 86.1317 62.1958 85.4075 62.8944C83.9678 64.2832 81.813 66.0052 79.1361 67.9531C73.7953 71.8396 66.5524 76.4995 59.246 80.997C51.9463 85.4902 44.6112 89.8042 39.0991 92.996C36.3435 94.5916 34.0447 95.906 32.4352 96.8214C31.6304 97.279 30.9981 97.6368 30.5672 97.8801C30.504 97.9158 30.4452 97.949 30.3908 97.9796Z" fill="#17171D"/>
<path fill-rule="evenodd" clip-rule="evenodd" d="M88.0918 59.7658C85.0836 56.2916 78.9919 48.5659 49.6923 65.7657C20.3927 82.9655 23.7927 95.8654 27.1926 98.1653C30.5926 100.466 38.2925 103.766 68.292 91.5654C98.2916 79.3656 91.1 63.24 88.0918 59.7658Z" fill="white"/>
<path fill-rule="evenodd" clip-rule="evenodd" d="M89.0944 58.6318C89.1394 58.6839 89.1832 58.7347 89.2258 58.7839C90.9747 60.8037 93.7505 66.1992 92.0205 72.7751C90.2749 79.4103 84.0758 86.7659 68.8571 92.9549C53.796 99.08 44.2001 101.372 37.8687 101.8C31.4451 102.234 28.3369 100.751 26.352 99.4077C23.8535 97.7174 22.2417 93.0331 24.798 86.9702C27.3669 80.8774 34.161 73.1437 48.9329 64.4721C63.6502 55.8326 72.8072 53.2813 78.8095 53.5141C81.8535 53.6322 84.0762 54.466 85.7607 55.5614C87.3209 56.5758 88.3647 57.7858 89.0944 58.6318ZM78.6932 56.5119C73.5726 56.3132 65.034 58.499 50.4517 67.0593C35.924 75.5875 29.7683 82.9036 27.5623 88.1357C25.3437 93.3977 27.1317 96.3132 28.0331 96.9229L28.0332 96.9229C29.4483 97.8804 31.8901 99.1971 37.6663 98.8065C43.5347 98.4097 52.7885 96.2511 67.7269 90.1759L68.292 91.5654L67.7269 90.1759C82.5078 84.165 87.7127 77.358 89.1192 72.0119C90.5412 66.6065 88.2171 62.2021 86.9578 60.7477C86.9248 60.7095 86.8917 60.6712 86.8584 60.6328C86.1174 59.7757 85.3194 58.8528 84.1254 58.0764C82.906 57.2836 81.2106 56.6095 78.6932 56.5119Z" fill="#17171D"/>
<path fill-rule="evenodd" clip-rule="evenodd" d="M119.139 32.1699C120.843 31.8721 145.187 28.674 180.393 70.4299C213.648 109.872 267.136 105.335 276.965 104.039C277.291 103.995 277.536 104.594 277.279 104.798L262.781 116.355C262.553 116.537 262.593 116.895 262.858 117.018C264.854 117.951 271.823 121.187 279.713 124.616C280.04 124.757 280.058 125.211 279.721 125.328C272.214 127.926 219.682 145.256 190.49 132.109C159.001 117.925 145.261 102.889 127.63 88.2572C110.268 73.8494 100.039 66.5507 87 63.1007C87 63.1007 111.99 39.4181 117.843 33.4754C118.661 32.645 119.131 32.1714 119.139 32.1699Z" fill="white"/>
<path fill-rule="evenodd" clip-rule="evenodd" d="M119.139 32.1699C120.843 31.8721 145.187 28.674 180.393 70.4299C213.648 109.872 267.136 105.335 276.965 104.039C277.291 103.995 277.536 104.594 277.279 104.798L262.781 116.355C262.553 116.537 262.593 116.895 262.858 117.018C264.854 117.951 271.823 121.187 279.713 124.616C280.04 124.757 280.058 125.211 279.721 125.328C272.214 127.926 219.682 145.256 190.49 132.109C159.001 117.925 145.261 102.889 127.63 88.2572C110.268 73.8494 100.039 66.5507 87 63.1007C87 63.1007 111.99 39.4181 117.843 33.4754C118.661 32.645 119.131 32.1714 119.139 32.1699Z" fill="#EC3750"/>
<path fill-rule="evenodd" clip-rule="evenodd" d="M277.279 104.798L264.905 114.662ZM272.879 104.469C273.42 104.424 273.926 104.378 274.395 104.332C275.305 104.242 276.078 104.153 276.701 104.073M272.879 104.469C256.85 105.802 210.39 106.008 180.393 70.4299C145.187 28.674 120.843 31.8721 119.139 32.1699C119.131 32.1714 118.661 32.645 117.843 33.4754C113.134 38.2565 96.0381 54.5203 89.5348 60.6956C87.9548 62.1959 87 63.1007 87 63.1007C88.1267 63.3988 89.2323 63.7257 90.3234 64.0833C101.86 67.8651 111.768 75.0944 127.63 88.2572C130.956 91.0178 134.144 93.7928 137.339 96.5737C151.077 108.532 164.942 120.601 190.49 132.109C216.89 143.999 262.378 130.963 276.391 126.439C276.69 126.342 276.974 126.249 277.244 126.161C278.1 125.881 278.806 125.642 279.348 125.457L279.351 125.456C279.484 125.41 279.608 125.367 279.721 125.328C280.058 125.211 280.04 124.757 279.713 124.616C279.619 124.576 279.526 124.535 279.432 124.494L279.431 124.494C278.735 124.191 278.046 123.889 277.368 123.591C277.094 123.471 276.821 123.351 276.55 123.231C271.968 121.209 267.926 119.364 265.325 118.164C265.283 118.144 265.241 118.124 265.199 118.105C264.564 117.812 264.019 117.559 263.578 117.354L263.577 117.353C263.293 117.221 263.052 117.109 262.858 117.018C262.593 116.895 262.553 116.537 262.781 116.355L264.905 114.662M261.589 119.737C259.27 118.656 258.974 115.556 260.909 114.011L260.911 114.009L268.777 107.739C261.051 108.098 249.635 107.925 236.893 105.457C217.699 101.738 195.302 92.7672 178.099 72.3637C147.028 35.5119 125.06 34.7424 120.518 35.0352C120.362 35.1937 120.182 35.376 119.98 35.5807C117.013 38.5932 109.262 46.038 102.298 52.6864C98.8065 56.0203 95.498 59.1681 93.0626 61.4822C92.9661 61.5739 92.871 61.6643 92.7773 61.7534C104.279 65.8624 114.359 73.3458 129.546 85.9486C132.938 88.7634 136.166 91.573 139.385 94.3736C153.089 106.299 166.607 118.061 191.722 129.374C205.438 135.551 225.082 134.668 242.734 131.666C254.734 129.625 265.484 126.666 272.239 124.599C267.105 122.303 263.043 120.416 261.589 119.737Z" fill="#17171D"/>
<path fill-rule="evenodd" clip-rule="evenodd" d="M264.905 114.662L277.279 104.798C277.279 104.798 277.5 104.5 277.279 104.23C277.058 103.96 276.701 104.073 276.701 104.073C276.078 104.153 275.305 104.242 274.395 104.332C273.926 104.378 273.42 104.424 272.879 104.469C256.85 105.802 210.39 106.008 180.393 70.4299C145.187 28.674 120.843 31.8721 119.139 32.1699C119.131 32.1714 118.661 32.645 117.843 33.4754C113.134 38.2565 96.0381 54.5203 89.5348 60.6956C87.9548 62.1959 87 63.1007 87 63.1007C88.1267 63.3988 89.2323 63.7257 90.3234 64.0833C101.86 67.8651 111.768 75.0944 127.63 88.2572C130.956 91.0178 134.144 93.7928 137.339 96.5737C151.077 108.532 164.942 120.601 190.49 132.109C216.89 143.999 262.378 130.963 276.391 126.439C276.69 126.342 276.974 126.249 277.244 126.161C278.1 125.881 278.806 125.642 279.348 125.457L279.351 125.456C279.484 125.41 279.608 125.367 279.721 125.328C280.058 125.211 280.04 124.757 279.713 124.616L279.432 124.494L279.431 124.494C278.735 124.191 278.046 123.889 277.368 123.591C277.094 123.471 276.821 123.351 276.55 123.231C271.968 121.209 267.926 119.364 265.325 118.164L265.199 118.105C264.564 117.812 264.019 117.559 263.578 117.354L263.577 117.353C263.293 117.221 263.052 117.109 262.858 117.018C262.593 116.895 262.553 116.537 262.781 116.355L264.905 114.662ZM261.589 119.737C259.27 118.656 258.974 115.556 260.909 114.011L260.911 114.009L268.777 107.739C261.051 108.098 249.635 107.925 236.893 105.457C217.699 101.738 195.302 92.7672 178.099 72.3637C147.028 35.5119 125.06 34.7424 120.518 35.0352C120.362 35.1937 120.182 35.376 119.98 35.5807C117.013 38.5932 109.262 46.038 102.298 52.6864C98.8065 56.0203 95.498 59.1681 93.0626 61.4822L92.7773 61.7534C104.279 65.8624 114.359 73.3458 129.546 85.9486C132.938 88.7634 136.166 91.573 139.385 94.3736C153.089 106.299 166.607 118.061 191.722 129.374C205.438 135.551 225.082 134.668 242.734 131.666C254.734 129.625 265.484 126.666 272.239 124.599C267.105 122.303 263.043 120.416 261.589 119.737Z" fill="#17171D"/>
<path fill-rule="evenodd" clip-rule="evenodd" d="M127.091 44.6185C125.396 47.105 122.388 51.3332 117.758 56.4624C109.446 64.2243 116.978 65.7401 120.723 62.6465C122.871 60.9743 125.136 59.1298 125.136 59.1298L130.213 64.2469C130.213 64.2469 128.46 66.8192 126.914 68.9035C122.285 74.0331 128.229 75.8447 131.78 72.114C133.498 70.1472 141.006 62.0856 144.161 57.4552C146.951 54.8394 143.688 49.8337 139.269 54.1008C137.297 55.5161 133.607 58.8988 133.607 58.8988C133.607 58.8988 129.383 54.7451 129.414 54.515C129.448 53.9098 130.669 52.8591 131.256 51.6266C134.826 42.8777 129.37 41.2745 127.091 44.6185Z" fill="white"/>
<path fill-rule="evenodd" clip-rule="evenodd" d="M150.596 63.9064C153.559 61.5001 155.587 61.7864 156.857 62.5289C157.412 62.8358 157.667 64.3582 157.759 65.7519C156.383 74.037 146.74 86.0707 145.707 86.7058C142.017 89.1949 138.562 86.8533 141.665 83.7665C143.351 81.8009 144.99 80.0629 144.99 80.0629L140.381 77.3353C133.232 83.0258 131.201 78.3798 134.618 76.0697C138.419 73.2723 146.62 67.0928 150.596 63.9064ZM144.704 72.7053L149.12 75.6766C149.12 75.6766 154.243 67.8513 152.349 68.0672L144.704 72.7053Z" fill="white"/>
<path fill-rule="evenodd" clip-rule="evenodd" d="M172.852 81.0425C174.288 79.5433 174.789 74.9162 169.887 73.5176C163.204 70.5654 155.642 81.1983 155.642 81.1983C155.642 81.1983 151.989 86.3524 152.001 90.9916C151.916 95.4215 155.762 97.168 156.468 97.5992C161.432 98.2538 161.247 94.6663 160.541 94.2359C159.612 93.7584 158.25 93.3332 157.591 92.0131C156.464 89.7915 158.409 86.3166 159.67 84.5444C162.046 81.6795 166.963 76.079 169.421 79.0981C170.229 82.3895 172.069 81.8735 172.852 81.0425Z" fill="white"/>
<path fill-rule="evenodd" clip-rule="evenodd" d="M177.217 82.7648C174.434 85.8138 174.205 90.2424 168.211 95.7324C166.762 97.0803 163.676 99.3594 163.278 99.7007C160.272 102.044 162.751 105.339 168.798 101.603C170.231 100.771 172.616 98.0628 172.616 98.0628L174.274 98.5963C174.274 98.5963 172.919 105.288 172.066 108.031C171.274 110.693 175.077 114.123 177.359 109.227C177.961 107.467 178.401 104.92 178.601 101.523C178.601 101.523 178.834 99.0737 178.259 98.483C178.259 98.483 185.44 95.7842 186.775 94.0827C188.173 92.3008 187.898 90.5 182.545 92.0246C177.194 93.55 176.272 94.3943 176.272 94.3943C176.272 94.3943 179.052 90.6851 180.368 87.5196C182.193 84.3659 179.553 80.2827 177.217 82.7648Z" fill="white"/>
<path fill-rule="evenodd" clip-rule="evenodd" d="M199.427 100.295C197.02 101.195 194.578 103.82 192.584 108.558C189.666 115.657 190.754 120.981 196.061 122.409C201.37 123.837 201.813 119.742 201.411 119.42C201.089 119.16 201.185 118.699 198.814 118.548C196.44 118.397 195.314 116.818 195.432 113.137C195.534 110.657 196.914 106.37 199.467 104.778C200.227 104.308 200.742 104.318 201.033 104.282C202.196 104.136 202.888 105.097 202.986 105.308C204.707 108.308 206.13 106.485 206.038 104.252C205.382 100.894 203.222 99.2949 199.427 100.295Z" fill="white"/>
<path fill-rule="evenodd" clip-rule="evenodd" d="M210.364 105.988C211.535 103.322 215.198 102.51 213.487 108.881C212.95 113.254 209.306 120.534 209.568 121.478C209.83 122.422 214.513 123.379 215.839 123.509C217.163 123.641 219.054 125.104 218.057 126.041C217.138 127.043 215.99 126.66 215.7 126.695C215.41 126.73 204.52 125.25 205.016 123.193C205.514 121.137 205.884 120.254 206.979 116.863C208.075 113.471 209.192 108.654 210.364 105.988Z" fill="white"/>
<path fill-rule="evenodd" clip-rule="evenodd" d="M222.865 108.585C223.52 106.571 226.006 106.28 226.231 108.86C226.386 110.852 224.279 118.249 224.395 121.81C224.646 123.343 226.162 124.283 227.41 123.541C229.046 122.307 230.242 117.922 231.166 114.387C231.482 112.638 231.571 111.231 231.99 110.363C233.666 107.56 235.722 109.33 235.464 112.86C234.866 116.654 233.369 122.544 232.013 124.267C230.721 125.908 229.188 128.024 226.536 127.516C225.852 127.373 220.336 125.786 221.067 119.296C221.991 112.559 222.209 110.598 222.865 108.585Z" fill="white"/>
<path fill-rule="evenodd" clip-rule="evenodd" d="M241.63 110.195C245.684 109.705 248.371 110.121 249.935 111.636C250.725 112.799 250.601 114.964 249.591 116.42C248.627 117.649 247.55 118.519 247.55 118.519C249.356 119.561 249.89 122.071 249.137 124.702C248.385 127.333 245.012 128.608 240.04 128.099C238.398 127.853 236.852 127.151 237.011 126.612C237.412 125.6 239.059 112.137 239.059 112.137C239.267 111.37 239.233 110.412 241.63 110.195ZM242.005 112.892L241.917 117.348C241.917 117.348 246.487 117.536 246.966 115.256C247.443 112.974 244.451 113.115 242.005 112.892ZM241.167 120.477C241.167 120.477 240.195 125.56 240.243 125.332C240.355 125.022 246.529 126.446 246.65 122.947C246.771 119.45 241.167 120.477 241.167 120.477Z" fill="white"/>
<path d="M90 60L48 100.362L51.3788 101.867L92.5 62L90 60Z" fill="#17171D"/>
<path fill-rule="evenodd" clip-rule="evenodd" d="M75 72.6578C75.7 74.3577 82.4999 81.2577 78.7999 82.2577C75.1 83.2576 76.4 91.7575 83.6999 89.8576C90.9998 87.9576 93.2997 78.3577 86.2998 74.3577C79.2999 70.3578 75 72.6578 75 72.6578Z" fill="white"/>
<path fill-rule="evenodd" clip-rule="evenodd" d="M62 81.6578C62.7 83.3577 69.4999 90.2577 65.7999 91.2577C62.1 92.2576 63.4 100.758 70.6999 98.8576C77.9998 96.9576 80.2997 87.3577 73.2998 83.3577C66.2999 79.3578 62 81.6578 62 81.6578Z" fill="white"/>
<path fill-rule="evenodd" clip-rule="evenodd" d="M49 90.6578C49.7 92.3577 56.4999 99.2577 52.7999 100.258C49.1001 101.258 50.4 109.758 57.7 107.858C64.9998 105.958 67.2998 96.3577 60.2998 92.3577C53.2999 88.3578 49 90.6578 49 90.6578Z" fill="white"/>
<path fill-rule="evenodd" clip-rule="evenodd" d="M77.9673 70.5089C80.2072 70.4227 83.3088 70.921 87.044 73.0553C91.1361 75.3937 92.5626 79.4529 91.8345 83.1826C91.1161 86.8627 88.3089 90.208 84.0777 91.3092C81.9712 91.8575 80.138 91.6911 78.6635 90.9539C77.1977 90.221 76.2298 88.9946 75.7252 87.6841C75.2271 86.3907 75.1521 84.9453 75.5467 83.6858C75.9452 82.4136 76.8707 81.2349 78.385 80.8161C78.3846 80.8135 78.3842 80.8108 78.3838 80.8081C78.3088 80.3316 77.9444 79.5529 77.2879 78.531C76.6968 77.6108 75.9844 76.6642 75.3268 75.7904C75.2879 75.7387 75.2491 75.6872 75.2106 75.636C74.8741 75.1885 74.5487 74.7537 74.2845 74.3737C74.0402 74.0224 73.7695 73.609 73.613 73.229C73.3198 72.5168 73.6134 71.6984 74.2925 71.3351L75 72.6578C74.2925 71.3351 74.2934 71.3346 74.2944 71.3341L74.2963 71.3331L74.3006 71.3308L74.3103 71.3258L74.3347 71.3132C74.3531 71.3039 74.376 71.2926 74.4032 71.2796C74.4575 71.2536 74.5293 71.2209 74.618 71.1836C74.7955 71.1092 75.0411 71.0165 75.3518 70.9237C75.9736 70.7379 76.8548 70.5517 77.9673 70.5089ZM77.4027 73.559C77.469 73.6475 77.5375 73.7387 77.6081 73.8326C77.6511 73.8897 77.6947 73.9477 77.739 74.0065C78.3826 74.8615 79.1581 75.8916 79.812 76.9095C80.4805 77.95 81.1661 79.1901 81.3473 80.3417C81.4424 80.9458 81.4254 81.6901 81.0253 82.3802C80.609 83.0983 79.9248 83.5075 79.1913 83.7057C78.8696 83.7927 78.5777 84.0458 78.4095 84.5826C78.2353 85.1387 78.2479 85.8869 78.5248 86.606C78.7951 87.308 79.2897 87.9129 80.0052 88.2706C80.7119 88.624 81.7787 88.8077 83.3221 88.406C83.3221 88.406 83.3221 88.406 83.3221 88.406C86.3909 87.6072 88.3835 85.2025 88.8901 82.6078C89.3869 80.0625 88.4634 77.3217 85.5556 75.6601C85.5556 75.6601 85.5556 75.6601 85.5556 75.6601C82.2909 73.7945 79.7426 73.4428 78.0826 73.5067C77.8382 73.5161 77.6114 73.5346 77.4027 73.559Z" fill="#252429"/>
<path fill-rule="evenodd" clip-rule="evenodd" d="M64.9673 79.5089C67.2072 79.4227 70.3088 79.921 74.044 82.0553C78.1361 84.3937 79.5626 88.4529 78.8345 92.1826C78.1161 95.8627 75.3089 99.208 71.0777 100.309C68.9712 100.858 67.138 100.691 65.6635 99.954C64.1977 99.2211 63.2298 97.9947 62.7252 96.6842C62.2271 95.3908 62.1521 93.9454 62.5467 92.6859C62.9452 91.4137 63.8707 90.2349 65.385 89.8161C65.3846 89.8135 65.3842 89.8108 65.3838 89.8081C65.3088 89.3316 64.9444 88.5529 64.2879 87.531C63.6968 86.6108 62.9844 85.6642 62.3268 84.7904C62.2879 84.7387 62.2491 84.6872 62.2106 84.636C61.8741 84.1885 61.5487 83.7537 61.2845 83.3737C61.0402 83.0224 60.7695 82.609 60.613 82.229C60.3198 81.5168 60.6134 80.6984 61.2925 80.3351L62 81.6578C61.2925 80.3351 61.2934 80.3346 61.2944 80.3341L61.2963 80.3331L61.3006 80.3308L61.3103 80.3258L61.3347 80.3132C61.3531 80.3039 61.376 80.2926 61.4032 80.2796C61.4575 80.2536 61.5293 80.2209 61.618 80.1836C61.7955 80.1092 62.0411 80.0165 62.3518 79.9237C62.9736 79.7379 63.8548 79.5517 64.9673 79.5089ZM64.4027 82.559C64.469 82.6475 64.5375 82.7387 64.6081 82.8326C64.6511 82.8897 64.6947 82.9477 64.739 83.0065C65.3826 83.8615 66.1581 84.8916 66.812 85.9095C67.4805 86.95 68.1661 88.1901 68.3473 89.3417C68.4424 89.9458 68.4254 90.6901 68.0253 91.3802C67.609 92.0983 66.9248 92.5075 66.1913 92.7057C65.8696 92.7927 65.5777 93.0458 65.4095 93.5826C65.2353 94.1387 65.2479 94.887 65.5248 95.6061C65.7951 96.3082 66.2897 96.913 67.0052 97.2707C67.7119 97.6241 68.7786 97.8077 70.322 97.406C73.3908 96.6072 75.3835 94.2025 75.8901 91.6078C76.3869 89.0625 75.4634 86.3217 72.5556 84.6601C69.2909 82.7945 66.7426 82.4428 65.0826 82.5067C64.8382 82.5161 64.6114 82.5346 64.4027 82.559Z" fill="#252429"/>
<path fill-rule="evenodd" clip-rule="evenodd" d="M52.4675 89.0091C54.7074 88.923 57.8091 89.4212 61.5443 91.5556C65.6363 93.8939 67.0628 97.9531 66.3347 101.683C65.6163 105.363 62.8091 108.708 58.578 109.809C56.4714 110.358 54.6383 110.192 53.1638 109.454C51.698 108.721 50.7301 107.495 50.2254 106.184C49.7273 104.891 49.6524 103.446 50.0469 102.186C50.4454 100.914 51.3709 99.7351 52.8853 99.3163C52.8849 99.3137 52.8845 99.311 52.884 99.3083C52.809 98.8318 52.4447 98.0531 51.7882 97.0312C51.1971 96.1111 50.4847 95.1644 49.8271 94.2906C49.7881 94.2389 49.7494 94.1874 49.7109 94.1362C49.3743 93.6888 49.049 93.2539 48.7848 92.874C48.5404 92.5227 48.2697 92.1092 48.1132 91.7292C47.82 91.0171 48.1137 90.1986 48.7928 89.8354L49.5003 91.158C48.7928 89.8354 48.7937 89.8349 48.7946 89.8344L48.7966 89.8333L48.8008 89.8311L48.8105 89.826L48.8349 89.8135C48.8534 89.8041 48.8762 89.7928 48.9034 89.7798C48.9578 89.7539 49.0295 89.7211 49.1182 89.6839C49.2957 89.6094 49.5414 89.5168 49.8521 89.424C50.4739 89.2382 51.3551 89.0519 52.4675 89.0091ZM51.9029 92.0592C51.9692 92.1477 52.0377 92.239 52.1084 92.3329C52.1513 92.39 52.1949 92.448 52.2392 92.5068C52.8828 93.3617 53.6583 94.3919 54.3122 95.4097C54.9807 96.4503 55.6663 97.6903 55.8476 98.8419C55.9426 99.4461 55.9257 100.19 55.5256 100.88C55.1092 101.599 54.4251 102.008 53.6915 102.206C53.3699 102.293 53.0779 102.546 52.9097 103.083C52.7356 103.639 52.7481 104.387 53.025 105.106C53.2954 105.808 53.79 106.413 54.5054 106.771C55.2121 107.124 56.2789 107.308 57.8223 106.906C60.8911 106.107 62.8838 103.703 63.3903 101.108C63.8872 98.5627 62.9637 95.822 60.0558 94.1603C56.7911 92.2948 54.2429 91.9431 52.5828 92.0069C52.3385 92.0163 52.1117 92.0348 51.9029 92.0592Z" fill="#252429"/>
</g>
<defs>
<clipPath id="clip0_31_2">
<rect width="280" height="158" fill="white"/>
</clipPath>
</defs>
</svg>
