<svg width="280" height="158" viewBox="0 0 280 158" fill="none" xmlns="http://www.w3.org/2000/svg">
<g clip-path="url(#clip0_35_91)">
<path d="M-36 79.8845C-36 79.8845 -11.8626 116.707 8.0068 125.687C27.8763 134.668 48.5399 133.794 48.5399 133.794L65.7928 63.8418C65.7928 63.8418 24.1627 55.7901 -6.65161 30" fill="white"/>
<path d="M-5.68889 28.8497L-6.83917 27.887L-8.76463 30.1875L-7.61435 31.1503C7.975 44.1978 26.2618 52.7313 40.6089 58.0002C47.79 60.6375 54.0024 62.4634 58.4236 63.631L63.6135 64.9086L63.9653 64.9874L66.077 62.369L66.0727 62.3681L66.0527 62.3642L65.6245 62.2768C65.3196 62.2131 64.8652 62.1157 64.2741 61.9822C63.0918 61.7154 61.3629 61.3044 59.1896 60.7304C54.8423 59.5824 48.7212 57.7836 41.6431 55.1841C27.4715 49.9797 9.53607 41.5923 -5.68889 28.8497Z" fill="black"/>
<path d="M63.9653 64.9874L47.3595 132.316C46.7858 132.32 46.0033 132.316 45.0397 132.291C42.8305 132.233 39.673 132.065 35.9005 131.619C28.3458 130.726 18.3746 128.727 8.6246 124.32C3.87401 122.173 -1.22065 118.314 -6.22878 113.645C-11.2219 108.989 -16.0562 103.598 -20.2904 98.4638C-24.5222 93.3328 -28.1393 88.4777 -30.6987 84.9048C-31.9779 83.119 -32.9918 81.655 -33.6849 80.6389C-34.0314 80.1309 -34.2977 79.735 -34.4768 79.4669C-34.5664 79.3329 -34.6341 79.2308 -34.6792 79.1627L-34.7297 79.0862L-34.742 79.0675L-34.7454 79.0622L-35.5678 77.8076L-38.0768 79.4523L-37.2545 80.7068L-37.253 80.7091L-37.2352 80.7362L-37.1812 80.818C-37.1337 80.8898 -37.0635 80.9956 -36.9714 81.1335C-36.7872 81.4092 -36.5155 81.8131 -36.1632 82.3295C-35.4587 83.3623 -34.4316 84.8452 -33.1375 86.6518C-30.5502 90.2637 -26.8911 95.1756 -22.6048 100.373C-18.321 105.567 -13.3955 111.065 -8.27458 115.839C-3.1687 120.6 2.20488 124.711 7.38897 127.054C17.5084 131.628 27.8038 133.683 35.5483 134.598C39.4254 135.056 42.6757 135.23 44.9618 135.29C46.1052 135.319 47.0082 135.32 47.629 135.314C47.9394 135.311 48.1793 135.305 48.3434 135.301C48.4254 135.299 48.4886 135.297 48.5321 135.295L48.5826 135.293L48.5967 135.293L48.6009 135.293L48.6023 135.293C48.6023 135.293 48.6033 135.293 48.5399 133.794L63.9653 64.9874Z" fill="black"/>
<path fill-rule="evenodd" clip-rule="evenodd" d="M63.9957 63.0942C59.412 62.7647 49.6416 61.6093 41.0858 94.4893C32.5299 127.369 44.0557 134.087 48.0861 133.309C52.1166 132.531 59.8947 129.42 72.4809 99.5805C85.0672 69.741 68.5795 63.4237 63.9957 63.0942Z" fill="white"/>
<path fill-rule="evenodd" clip-rule="evenodd" d="M63.9028 61.5834C63.9714 61.5885 64.0383 61.5934 64.1032 61.5981C66.7681 61.7896 72.5461 63.642 75.9727 69.5152C79.4301 75.4413 80.248 85.0259 73.863 100.163C67.5441 115.144 62.3791 123.55 58.2049 128.33C53.9699 133.179 50.7232 134.328 48.3704 134.782C45.4084 135.354 40.9562 133.181 38.4766 127.086C35.9849 120.961 35.3205 110.688 39.6341 94.1116C43.9317 77.5959 48.6026 69.3168 53.0115 65.2372C55.2474 63.1683 57.4087 62.1862 59.3744 61.7695C61.1949 61.3837 62.7886 61.5012 63.9028 61.5834ZM55.049 67.4392C51.2878 70.9195 46.7956 78.5027 42.5374 94.8671L41.0858 94.4893L42.5374 94.8671C38.2951 111.17 39.1157 120.696 41.2555 125.956C43.4075 131.245 46.7334 132.042 47.8018 131.836C49.4795 131.512 52.1371 130.717 55.9453 126.356C59.8143 121.926 64.8314 113.856 71.0988 98.9976C77.3001 84.2956 76.1672 75.8018 73.3814 71.027C70.5648 66.1993 65.807 64.7283 63.8881 64.5904C63.8378 64.5867 63.7873 64.5831 63.7367 64.5794C62.6066 64.4974 61.3898 64.409 59.9964 64.7044C58.5736 65.0059 56.8981 65.7282 55.049 67.4392Z" fill="#17171D"/>
<path fill-rule="evenodd" clip-rule="evenodd" d="M94.7941 27.3061C96.2291 26.3412 117.168 13.5177 166.314 37.3441C212.736 59.8511 259.755 33.9504 268.207 28.7682C268.487 28.5957 268.954 29.0436 268.802 29.3344L260.259 45.7891C260.124 46.0485 260.306 46.3583 260.598 46.3632C262.801 46.4034 270.484 46.5252 279.087 46.4486C279.443 46.4446 279.644 46.8521 279.383 47.0958C273.582 52.5232 232.641 89.7216 200.625 89.5838C166.089 89.4345 147.421 81.2866 125.363 75.0911C103.642 68.9906 91.3153 66.8481 78 69C78 69 91.2111 36.8355 94.1411 29.0259C94.5501 27.9348 94.7871 27.3109 94.7941 27.3061Z" fill="white"/>
<path fill-rule="evenodd" clip-rule="evenodd" d="M94.7941 27.3061C96.2291 26.3412 117.168 13.5177 166.314 37.3441C212.736 59.8511 259.755 33.9504 268.207 28.7682C268.487 28.5957 268.954 29.0436 268.802 29.3344L260.259 45.7891C260.124 46.0485 260.306 46.3583 260.598 46.3632C262.801 46.4034 270.484 46.5252 279.087 46.4486C279.443 46.4446 279.644 46.8521 279.383 47.0958C273.582 52.5232 232.641 89.7216 200.625 89.5838C166.089 89.4345 147.421 81.2866 125.363 75.0911C103.642 68.9906 91.3153 66.8481 78 69C78 69 91.2111 36.8355 94.1411 29.0259C94.5501 27.9348 94.7871 27.3109 94.7941 27.3061Z" fill="#EC3750"/>
<path fill-rule="evenodd" clip-rule="evenodd" d="M268.207 28.7682C268.135 28.8125 268.06 28.8583 267.982 28.9056C267.981 28.9061 267.98 28.9067 267.979 28.9072C267.442 29.2333 266.772 29.6293 265.978 30.0809C265.568 30.3141 265.124 30.5621 264.649 30.823C250.547 38.561 208.188 57.6459 166.314 37.3441C117.168 13.5177 96.2291 26.3412 94.7941 27.3061C94.7871 27.3109 94.5501 27.9348 94.1411 29.0259C91.7804 35.318 82.7458 57.4201 79.324 65.7716C78.4988 67.7856 78 69 78 69C79.1492 68.8143 80.2909 68.6605 81.432 68.5386C93.5129 67.2474 105.517 69.5171 125.363 75.0911C129.525 76.2601 133.567 77.4987 137.617 78.7399C155.031 84.0766 172.606 89.4627 200.625 89.5838C229.579 89.7084 265.832 59.2976 276.793 49.4647C277.027 49.2548 277.249 49.0542 277.46 48.8636C278.127 48.2593 278.676 47.7543 279.095 47.3642C279.096 47.3636 279.097 47.3629 279.097 47.3623C279.2 47.2664 279.296 47.1775 279.383 47.0958C279.644 46.8521 279.443 46.4446 279.087 46.4486C278.985 46.4495 278.883 46.4504 278.781 46.4512C278.781 46.4512 278.78 46.4512 278.78 46.4512C278.021 46.4576 277.269 46.4624 276.528 46.4659C276.228 46.4674 275.93 46.4686 275.634 46.4696C270.625 46.4864 266.183 46.4444 263.319 46.4058C263.272 46.4052 263.226 46.4045 263.179 46.4039C262.479 46.3943 261.878 46.385 261.391 46.377C261.39 46.3769 261.389 46.3769 261.389 46.3769C261.076 46.3717 260.811 46.3671 260.598 46.3632C260.306 46.3583 260.124 46.0485 260.259 45.7891L268.688 29.5533L268.689 29.5512L268.802 29.3344C268.954 29.0436 268.487 28.5957 268.207 28.7682ZM262.232 35.4783C255.32 38.9494 244.82 43.4348 232.176 46.3623C213.128 50.7722 189.019 51.6864 165.005 40.0435C121.63 19.015 101.248 27.2485 97.2192 29.3628C97.1408 29.5709 97.0509 29.8103 96.9502 30.0789C95.4671 34.032 91.4122 44.073 87.7506 53.0722C85.915 57.5834 84.1712 61.8501 82.8864 64.9888C82.8287 65.1297 82.772 65.2683 82.7162 65.4045C94.8727 64.4089 107.115 66.8499 126.174 72.2028C130.418 73.3948 134.511 74.6483 138.591 75.8978C155.96 81.2175 173.093 86.4647 200.638 86.5838C215.681 86.6486 233.268 77.8519 248.172 67.9295C258.304 61.1844 266.921 54.1092 272.251 49.4725C266.628 49.464 262.151 49.392 260.546 49.3627C257.992 49.3188 256.45 46.6104 257.598 44.4041L262.232 35.4783ZM260.653 43.3637C260.654 43.3637 260.655 43.3637 260.656 43.3638ZM262.923 47.1689L262.922 47.1714L262.92 47.174" fill="#17171D"/>
<path fill-rule="evenodd" clip-rule="evenodd" d="M107.087 35.7931C106.55 38.754 105.522 43.84 103.379 50.4087C98.9424 60.8807 106.44 59.2016 108.603 54.8522C109.885 52.451 111.204 49.8447 111.204 49.8447L117.923 52.4545C117.923 52.4545 117.368 55.5174 116.803 58.0505C114.661 64.6192 120.828 63.8565 122.554 59.0043C123.324 56.5086 126.904 46.0901 127.903 40.5767C129.388 37.0522 124.371 33.8065 122.069 39.5023C120.843 41.5974 118.848 46.1885 118.848 46.1885C118.848 46.1885 113.3 44.1118 113.235 43.8889C113.02 43.3221 113.708 41.8657 113.743 40.501C113.446 31.0563 107.809 31.8112 107.087 35.7931Z" fill="white"/>
<path fill-rule="evenodd" clip-rule="evenodd" d="M137.292 42.8295C139.02 39.4261 140.989 38.8629 142.451 39.0247C143.083 39.0793 143.935 40.3664 144.586 41.6022C146.699 49.7305 142.784 64.6462 142.099 65.6463C139.74 69.4213 135.631 68.6875 137.211 64.6052C137.951 62.1241 138.742 59.8694 138.742 59.8694L133.422 59.2523C129.205 67.3589 125.46 63.9406 127.642 60.4403C129.977 56.3386 134.955 47.358 137.292 42.8295ZM135.488 53.2643L140.731 54.1824C140.731 54.1824 142.228 44.9501 140.585 45.9179L135.488 53.2643Z" fill="white"/>
<path fill-rule="evenodd" clip-rule="evenodd" d="M164.057 50.746C164.759 48.7924 163.335 44.3614 158.288 45.0775C150.982 45.0988 148.399 57.888 148.399 57.888C148.399 57.888 147.157 64.0824 149.055 68.3156C150.779 72.3971 155.004 72.4283 155.824 72.5352C160.625 71.1142 158.997 67.912 158.177 67.806C157.134 67.7476 155.717 67.9131 154.578 66.9752C152.645 65.404 153.008 61.4386 153.439 59.3068C154.445 55.7229 156.659 48.6066 160.132 50.3652C162.209 53.0433 163.68 51.8235 164.057 50.746Z" fill="white"/>
<path fill-rule="evenodd" clip-rule="evenodd" d="M168.318 50.4456C167.016 54.3628 168.608 58.5017 165.365 65.9552C164.59 67.7757 162.698 71.1128 162.473 71.5866C160.68 74.9498 164.284 76.9515 168.289 71.079C169.26 69.7364 170.337 66.2924 170.337 66.2924L172.069 66.1053C172.069 66.1053 173.553 72.769 173.889 75.6225C174.249 78.3764 179.118 79.9629 179.211 74.5618C179.045 72.7098 178.411 70.2039 177.212 67.0192C177.212 67.0192 176.429 64.6867 175.663 64.3811C175.663 64.3811 181.126 58.9946 181.653 56.8975C182.206 54.7007 181.222 53.1676 176.952 56.7376C172.684 60.3076 172.185 61.454 172.185 61.454C172.185 61.454 173.216 56.9347 173.131 53.5075C173.515 49.8844 169.443 47.2277 168.318 50.4456Z" fill="white"/>
<path fill-rule="evenodd" clip-rule="evenodd" d="M195.897 57.549C194.064 59.3508 192.901 62.7417 193.007 67.8813C193.228 75.5532 196.387 79.9742 201.817 79.1207C207.248 78.2659 205.987 74.3447 205.488 74.2136C205.088 74.1076 204.989 73.6474 202.761 74.4741C200.531 75.3013 198.86 74.317 197.471 70.9063C196.555 68.5988 196.072 64.1212 197.757 61.6285C198.26 60.8903 198.735 60.6898 198.986 60.5378C199.989 59.9315 201.012 60.528 201.187 60.6817C203.98 62.7223 204.538 60.4774 203.546 58.4755C201.581 55.6737 198.957 55.0922 195.897 57.549Z" fill="white"/>
<path fill-rule="evenodd" clip-rule="evenodd" d="M208 57.8567C207.986 54.9447 211.002 52.713 212.03 59.2286C213.318 63.4417 212.95 71.575 213.573 72.3309C214.197 73.0869 218.864 72.0558 220.128 71.6361C221.391 71.2177 223.714 71.785 223.184 73.0467C222.752 74.3356 221.548 74.4524 221.297 74.6022C221.047 74.7528 210.496 77.8304 210.113 75.7492C209.731 73.6677 209.71 72.7111 209.331 69.1678C208.952 65.6231 208.014 60.7686 208 57.8567Z" fill="white"/>
<path fill-rule="evenodd" clip-rule="evenodd" d="M221.016 55.1558C220.796 53.05 222.948 51.7731 224.203 54.0386C225.155 55.7948 226.239 63.4093 227.793 66.615C228.646 67.9142 230.413 68.1559 231.252 66.9707C232.244 65.1774 231.553 60.6852 230.96 57.0803C230.537 55.3536 230.046 54.0323 230.076 53.0689C230.467 49.8267 233.065 50.6072 234.265 53.9369C235.262 57.6458 236.29 63.6358 235.752 65.7617C235.239 67.7859 234.699 70.3429 232.07 70.957C231.387 71.1043 225.702 71.8987 223.73 65.6726C221.834 59.1421 221.236 57.2617 221.016 55.1558Z" fill="white"/>
<path fill-rule="evenodd" clip-rule="evenodd" d="M238.676 48.3505C242.18 46.2534 244.804 45.5401 246.849 46.2889C248.044 47.03 248.811 49.0579 248.48 50.7987C248.1 52.3131 247.47 53.5462 247.47 53.5462C249.543 53.7639 251.052 55.84 251.434 58.5493C251.817 61.2587 249.255 63.7956 244.505 65.3528C242.905 65.7958 241.208 65.7832 241.134 65.2266C241.088 64.139 237.117 51.17 237.117 51.17C236.995 50.3849 236.574 49.5233 238.676 48.3505ZM240.115 50.6613L241.848 54.7681C241.848 54.7681 246.099 53.0812 245.609 50.8027C245.117 48.5245 242.441 49.8697 240.115 50.6613ZM242.435 57.9317C242.435 57.9317 243.615 62.9704 243.566 62.7428C243.542 62.4135 249.761 61.2033 248.449 57.9576C247.137 54.7132 242.435 57.9317 242.435 57.9317Z" fill="white"/>
<path d="M94.5 28L58 118.327H61.6986L96.9525 30L94.5 28Z" fill="#17171D"/>
<path fill-rule="evenodd" clip-rule="evenodd" d="M55 119.122C56.697 119.829 66.3842 119.9 64.4751 123.224C62.5659 126.547 69.4954 131.638 73.3138 125.133C77.1321 118.627 71.9702 110.213 64.1921 112.334C56.4141 114.455 55 119.122 55 119.122Z" fill="white"/>
<path fill-rule="evenodd" clip-rule="evenodd" d="M58.5003 101.623C60.1973 102.33 69.8845 102.401 67.9754 105.725C66.0662 109.048 72.9957 114.139 76.8141 107.634C80.6324 101.128 75.4705 92.7137 67.6924 94.8347C59.9144 96.9557 58.5003 101.623 58.5003 101.623Z" fill="white"/>
<path fill-rule="evenodd" clip-rule="evenodd" d="M64.5003 85.6227C66.1973 86.3297 75.8845 86.4007 73.9754 89.7247C72.0662 93.0477 78.9957 98.1387 82.8141 91.6337C86.6324 85.1277 81.4705 76.7137 73.6924 78.8347C65.9144 80.9557 64.5003 85.6227 64.5003 85.6227Z" fill="white"/>
<path fill-rule="evenodd" clip-rule="evenodd" d="M74.3458 114.661C76.4401 117.771 76.8205 122.121 74.6075 125.892C73.5056 127.769 72.0916 128.948 70.5277 129.469C68.973 129.988 67.4214 129.805 66.138 129.235C64.8712 128.673 63.7961 127.704 63.1845 126.534C62.5667 125.353 62.3877 123.865 63.1625 122.498C63.1603 122.496 63.158 122.494 63.1557 122.493C62.7657 122.209 61.9575 121.916 60.7707 121.657C59.7019 121.425 58.5286 121.259 57.4456 121.106C57.3817 121.097 57.318 121.088 57.2548 121.079C56.7004 121.001 56.1629 120.923 55.7074 120.841C55.2862 120.766 54.8025 120.665 54.4231 120.507C53.7122 120.21 53.3411 119.424 53.5644 118.687L55 119.122C53.5644 118.687 53.5648 118.686 53.5651 118.685L53.5657 118.683L53.5671 118.678L53.5704 118.668L53.5788 118.642C53.5852 118.622 53.5934 118.598 53.6034 118.569C53.6235 118.513 53.6511 118.439 53.6875 118.35C53.7603 118.172 53.8685 117.932 54.0226 117.647C54.3309 117.076 54.8223 116.321 55.5786 115.504C57.1016 113.859 59.6471 112.019 63.7975 110.887C68.3444 109.647 72.2234 111.508 74.3458 114.661ZM57.3361 118.06C57.4664 117.895 57.6138 117.722 57.78 117.542C58.9086 116.324 60.9591 114.77 64.5867 113.781C67.8179 112.9 70.4089 114.185 71.8574 116.336C73.3339 118.529 73.6253 121.639 72.0202 124.374M57.3361 118.06C57.4456 118.076 57.5586 118.092 57.675 118.109C57.7456 118.119 57.8173 118.129 57.89 118.139C58.9498 118.288 60.2267 118.468 61.409 118.726C62.6175 118.989 63.9792 119.381 64.9216 120.068C65.4161 120.428 65.9303 120.966 66.1353 121.737C66.3486 122.539 66.1543 123.312 65.7758 123.971C65.6099 124.26 65.5823 124.645 65.8429 125.144C66.113 125.66 66.6509 126.18 67.3552 126.493C68.0428 126.798 68.8202 126.876 69.5791 126.623C70.3287 126.373 71.2129 125.749 72.0202 124.374M63.2268 122.367C63.2268 122.367 63.2267 122.367 63.2263 122.369Z" fill="#252429"/>
<path fill-rule="evenodd" clip-rule="evenodd" d="M77.8461 97.1614C79.9404 100.272 80.3208 104.622 78.1077 108.393C77.0058 110.27 75.5919 111.449 74.028 111.97C72.4733 112.488 70.9217 112.306 69.6383 111.736C68.3715 111.173 67.2964 110.204 66.6848 109.035C66.067 107.853 65.8879 106.365 66.6628 104.999C66.6605 104.997 66.6583 104.995 66.6559 104.994C66.266 104.71 65.4577 104.417 64.2709 104.158C63.2022 103.925 62.0288 103.76 60.9459 103.607C60.8819 103.598 60.8183 103.589 60.755 103.58C60.2007 103.501 59.6632 103.424 59.2077 103.342C58.7865 103.266 58.3028 103.166 57.9234 103.007C57.2125 102.711 56.8414 101.925 57.0647 101.188L58.5003 101.623C57.0647 101.188 57.065 101.187 57.0653 101.186L57.066 101.184L57.0674 101.179L57.0707 101.169L57.0791 101.143C57.0855 101.123 57.0937 101.099 57.1037 101.07C57.1237 101.014 57.1513 100.94 57.1878 100.851C57.2606 100.672 57.3688 100.433 57.5228 100.148C57.8311 99.5768 58.3226 98.822 59.0789 98.0051C60.6018 96.3603 63.1474 94.5195 67.2977 93.3877C71.8447 92.1478 75.7237 94.0093 77.8461 97.1614ZM60.8364 100.561C60.9667 100.396 61.1141 100.223 61.2802 100.043C62.4089 98.8244 64.4594 97.2712 68.087 96.282C71.3181 95.4009 73.9092 96.6859 75.3576 98.837C76.8342 101.03 77.1256 104.139 75.5205 106.874M60.8364 100.561C60.9459 100.577 61.0589 100.593 61.1753 100.609C61.2458 100.619 61.3176 100.629 61.3903 100.64C62.4501 100.789 63.727 100.969 64.9093 101.227C66.1178 101.49 67.4794 101.882 68.4219 102.568C68.9164 102.928 69.4305 103.467 69.6356 104.238C69.8489 105.04 69.6546 105.813 69.2761 106.472C69.1102 106.761 69.0826 107.146 69.3432 107.645C69.6132 108.161 70.1512 108.681 70.8555 108.994C71.543 109.299 72.3205 109.377 73.0793 109.124C73.8289 108.874 74.7132 108.25 75.5205 106.874M66.7271 104.867C66.7271 104.867 66.727 104.868 66.7265 104.87Z" fill="#252429"/>
<path fill-rule="evenodd" clip-rule="evenodd" d="M83.8461 81.1614C85.9404 84.2717 86.3208 88.6222 84.1077 92.3931C83.0058 94.2702 81.5919 95.4489 80.028 95.9702C78.4733 96.4884 76.9217 96.3056 75.6383 95.7358C74.3715 95.1735 73.2964 94.2044 72.6848 93.0349C72.067 91.8535 71.8879 90.3655 72.6628 88.9986C72.6605 88.9969 72.6583 88.9953 72.6559 88.9936C72.266 88.7096 71.4577 88.4166 70.2709 88.1581C69.2022 87.9254 68.0288 87.7597 66.9459 87.6068C66.8819 87.5977 66.8183 87.5888 66.755 87.5798C66.2007 87.5014 65.6632 87.4239 65.2077 87.3421C64.7865 87.2664 64.3028 87.1655 63.9234 87.0075C63.2125 86.7113 62.8414 85.9249 63.0647 85.1879L64.5003 85.6228C63.0647 85.1879 63.065 85.1869 63.0653 85.1858L63.066 85.1837L63.0674 85.1791L63.0707 85.1687L63.0791 85.1426C63.0855 85.1229 63.0937 85.0987 63.1037 85.0703C63.1237 85.0135 63.1513 84.9397 63.1878 84.8506C63.2606 84.6724 63.3688 84.4332 63.5228 84.1479C63.8311 83.5768 64.3226 82.822 65.0789 82.0051C66.6018 80.3603 69.1474 78.5194 73.2977 77.3877C77.8447 76.1478 81.7237 78.0093 83.8461 81.1614ZM66.8364 84.5611C66.9667 84.3962 67.1141 84.2228 67.2802 84.0433C68.4089 82.8244 70.4594 81.2712 74.087 80.282C77.3181 79.4009 79.9092 80.6859 81.3576 82.837C82.8342 85.0299 83.1256 88.1394 81.5205 90.8745M66.8364 84.5611C66.9459 84.5769 67.0589 84.5929 67.1753 84.6094C67.2458 84.6194 67.3176 84.6295 67.3903 84.6397C68.4501 84.7892 69.727 84.9693 70.9093 85.2268C72.1178 85.49 73.4794 85.8821 74.4219 86.5684C74.9164 86.9285 75.4305 87.4668 75.6356 88.2377C75.8489 89.0398 75.6546 89.8129 75.2761 90.4719C75.1102 90.7607 75.0826 91.1462 75.3432 91.6446C75.6132 92.161 76.1512 92.6812 76.8555 92.9939C77.543 93.2991 78.3205 93.377 79.0793 93.1241C79.8289 92.8743 80.7132 92.2498 81.5205 90.8745M72.7271 88.8675C72.7271 88.8674 72.727 88.8681 72.7265 88.8696Z" fill="#252429"/>
</g>
<defs>
<clipPath id="clip0_35_91">
<rect width="280" height="158" fill="white"/>
</clipPath>
</defs>
</svg>
