<svg height="933.333" viewBox="0 0 700 700" width="933.333" xmlns="http://www.w3.org/2000/svg"><path d="m303.8.5c-.2.2-7.3.6-15.9.9-8.6.4-18.1.9-21 1.1-13.4 1.2-35.3 3.3-39.9 4-1.4.2-4.7.6-7.4 1-4.1.5-14.7 2.3-30.1 5-5.2 1-29.7 7.3-36.5 9.5-19.4 6.2-40.7 16.1-55.5 25.8-5.5 3.6-10.2 6.8-10.5 7.1s-3.4 3.1-7 6.1c-27.9 23.6-46.8 54.9-60.3 100-3.7 12.1-8.1 31.9-10.3 46-.3 1.9-.7 4.2-.9 5s-.7 4.2-1 7.5c-.4 3.3-.8 6.7-1 7.5s-.7 4.6-1.1 8.5c-.3 3.8-.8 7.8-1 8.8-.2 1.1-.6 6.2-.9 11.5-.4 5.4-.8 11.3-1 13.2-2.7 26.5-2.6 133.5 0 162.4.2 2.3.6 7.7 1 12.1 1.1 15.1 1.7 20.6 4 36.5.2 1.4.7 4.7 1.1 7.5.3 2.7.8 5.9 1 7 1.3 6.9 2.7 14.3 3 16.2 3.8 20.4 13 49 21.6 67.3 27.2 57.7 73.3 91 149.3 108 7.1 1.6 10 2.2 12 2.5 1.1.2 4.7.9 8 1.4 9.8 1.7 12.3 2.1 28.3 4.1 10.5 1.3 15.7 1.8 25.7 2.5 4.4.3 9.7.7 11.8 1 21.7 2.6 148.3 2.6 161.2 0 1.1-.2 6.3-.7 11.5-1s10.9-.7 12.5-.9c1.7-.2 6.2-.7 10-1.1 3.9-.4 7.9-.9 8.9-1.1 1.1-.2 4.2-.6 7-.9s6-.8 7.1-1c1.1-.3 3.6-.7 5.5-1 1.9-.2 4.7-.7 6.3-1 1.5-.3 3.7-.7 5-.9 21.4-4 55-13.7 65.7-19.1 1.4-.7 6.6-3.2 11.5-5.6 24.9-12 45.4-28.3 61.9-49.4 23-29.3 37.5-66.4 47.1-120.5.1-.8.6-3.7.9-6.3.4-2.7.9-5.6 1-6.5.2-1 .7-4.4 1-7.7 1.5-12.8 1.8-15.1 2.1-17.2.2-1.2.7-6.6 1-12 .4-5.4.9-11.6 1-13.8 2.7-33.3 2.7-126.9 0-162.5-.3-3-.7-8.6-1-12.4s-.7-8.8-1-11c-1.7-15-2.7-23.4-3-25.6-3.6-23.5-7.5-42.4-12-57.5-21.6-73.3-60.8-115-130-138.3-15.4-5.2-45.6-12.5-56.5-13.7-4.2-.5-11.4-1.6-12-2-.3-.1-3.6-.6-7.5-.9-3.8-.4-8.1-.9-9.5-1.1s-5.9-.7-10-1-9.3-.8-11.5-1-8.3-.7-13.5-1-12-.8-15-1.1c-5.9-.5-110.7-1.4-111.2-.9zm11 206.6c.1 43 .3 78.3.5 78.5s3-1.7 6.3-4.2c24-18.7 67.6-26.7 100.3-18.3 34.8 8.9 54 36.4 58.7 84.4.3 3.1.7 206.9.5 218.7l-.1 2.8h-96l-.1-97.3c0-53.4-.2-99.8-.4-102.9-1-17.7-4.9-27.9-12.5-33.3-3.6-2.6-5-3-10.8-3-22.1.1-40.5 25.2-45.7 62.2-.3 2.1-.6 42.2-.6 89.1l-.1 85.2-48-.2-48-.3v-210c.1-115.5.1-210.8.1-211.7.1-1.8 1.5-2.5 7.6-3.3 2.2-.4 4.7-.8 5.5-1s3.5-.7 6-1c3.7-.5 6.9-1 11-2 .3-.1 3-.5 6-.9 3-.5 6.4-1 7.5-1.2s4.7-.9 8-1.4 6.9-1.2 8-1.4c3.8-.7 9-1.6 12.5-2.1 1.9-.3 6.9-1.2 11-1.9 4.1-.8 8.7-1.4 10.1-1.5l2.7-.1z"/></svg>