<svg width="534" height="207" viewBox="0 0 534 207" fill="none" xmlns="http://www.w3.org/2000/svg">
<g clip-path="url(#clip0_1_3)">
<mask id="mask0_1_3" style="mask-type:luminance" maskUnits="userSpaceOnUse" x="0" y="0" width="534" height="207">
<path d="M0 207V0H534V207H0Z" fill="white"/>
</mask>
<g mask="url(#mask0_1_3)">
<path d="M500.9 168C508 183 529.5 202.2 529.5 202.2C519.7 205.3 491.3 201.2 449.6 187.3C407.9 173.4 374.5 190.6 341.2 200.2C307.9 209.9 303.6 193.3 300.5 182C299 170.9 299 171.2 298.9 138.1L304.1 134.9C342.3 125.2 369.7 114.5 369.7 114.5C425.3 94 460.7 111.9 468.7 114.5C485.7 120.5 529.5 151.2 529.5 151.2C524.7 161.1 500.9 168.1 500.9 168Z" fill="#E42D40" stroke="black" stroke-width="6" stroke-miterlimit="10"/>
<path d="M354.1 144.6C354.1 144.6 352.6 139.9 360 132.8C367.4 125.7 375 129.4 376.4 132.1C377.9 134.8 380.5 140.4 375 152.9C372.5 158.4 371 160.9 367.5 166.8C364.7 172.6 372.6 164.2 381.7 164.2C390.8 164.2 388.2 172.3 385.6 172.4C362.4 177.1 359 184.7 356.1 179.4C353.2 174.2 356 168.9 357.9 165.6C359.9 162.3 374.3 142.7 367.7 139.3C365.6 138.1 363.6 140.4 362 142.7C360.7 144.7 360.2 146.5 358.2 147.7C356.3 148 354.8 146.6 354.1 144.6Z" fill="#F1F2F2" stroke="#F1F2F2" stroke-width="0.25" stroke-miterlimit="10"/>
<path d="M428.125 133.906C428.125 133.906 426.625 129.206 434.025 122.106C441.425 115.006 449.025 118.706 450.425 121.406C451.925 124.106 454.525 129.706 449.025 142.206C446.525 147.706 443.5 152.6 440 158.5C438.275 161.407 450.5 162.75 454 164.5C457.5 166.25 453 173.5 450.425 172.5C447.849 171.5 437.5 167.5 430.125 168.706C424.249 169.668 430.025 158.206 431.925 154.906C433.925 151.606 448.325 132.006 441.725 128.606C439.625 127.406 437.625 129.706 436.025 132.006C434.725 134.006 434.225 135.806 432.225 137.006C430.325 137.306 428.825 135.906 428.125 133.906Z" fill="#F1F2F2" stroke="#F1F2F2" stroke-width="0.25" stroke-miterlimit="10"/>
<path d="M415.5 129C418 137 420 148 417 159.8C414 171.6 398.2 170.5 394.1 165.8C389.9 161.1 386.3 145.2 388.5 132.9C390.8 120.5 399.8 119.8 402.1 119.2C408 118.9 413.084 121.268 415.5 129ZM402.3 128.2C396.1 129.3 396.6 138.4 397.2 144.2C398.7 154.7 400.5 159.1 402 160.8C404 162.6 405.6 162.4 407.8 159.8C408.9 158.2 409.5 155.4 409.8 151.7C410.1 148 409.9 144.6 409.9 144.6C409.9 144.6 409.7 127.3 402.3 128.2Z" fill="#F1F2F2" stroke="#F1F2F2" stroke-width="0.25" stroke-miterlimit="10"/>
<path d="M299.9 178.8C299 173.8 298.8 135.7 299.1 123C299.4 108.3 312 107.7 312 107.7C334.3 100.1 344 80 345.4 84C346.7 88 345.3 146.7 344 154.6C342.7 162.5 336.4 161.7 317.5 168C301.9 172.9 301.2 182.6 301.2 182.6C301.2 182.6 300.6 182.2 299.9 178.8Z" fill="#E42D40" stroke="black" stroke-width="6" stroke-miterlimit="10"/>
<path d="M0.400024 37.6C0.400024 37.6 107.4 1.10001 189.1 3.10001C244.4 6.50001 289 21 315.2 35.6C319.6 38 339.6 49.1 344.2 57.8C347.8 61.9 345.3 141.5 344.3 148.4C344.2 152.9 344.4 151.5 343.2 148.8C336.1 134.9 295.7 121.5 275.2 115.3C254.4 109.3 224.2 100.9 173.6 103.9C121 107 72.2 117.5 39.9 124.3C20 128.5 1.90002 130 1.90002 130" fill="#E42D40"/>
<path d="M0.400024 37.6C0.400024 37.6 107.4 1.10001 189.1 3.10001C244.4 6.50001 289 21 315.2 35.6C319.6 38 339.6 49.1 344.2 57.8C347.8 61.9 345.3 141.5 344.3 148.4C344.2 152.9 344.4 151.5 343.2 148.8C336.1 134.9 295.7 121.5 275.2 115.3C254.4 109.3 224.2 100.9 173.6 103.9C121 107 72.2 117.5 39.9 124.3C20 128.5 1.90002 130 1.90002 130" stroke="black" stroke-width="6" stroke-miterlimit="10"/>
<path d="M87.4 46.4C88.4 49.4 90.2 54.8 94 66.3C95.7 71.3 97.5 78.6 97.5 78.6C97.5 78.6 101 90.3 98.4 92C96.8 94.2 93 93.1 91.4 91.2C89.2 88.1 87.4 81.1 86.5 77.2C86.1 75.6 85.5 74 85.1 73.7C83.5 72.8 80.5 73.9 78.7 74.5C76.3 75.4 73.8 76.6 72.9 77.1C70.8 85.8 73.6 73 70.8 85.8C69.6 91.5 69.3 94.2 68.8 95.8C68.2 97.7 62.8 104.1 59.4 96.3C59.2 94.1 59.7 91.5 59.7 91.5C59.7 91.5 61.4 71.1 66.8 51.3C72.2 31.5 78.3 34.3 78.3 34.3C80.3 34.3 82.8 35 87.4 46.4ZM72.5 67C72.5 67 82 65.1 83 63.5C84 61.9 80.1 46 78.2 45.4C76.4 44.9 73.5 52.4 72.5 67Z" fill="#F1F2F2" stroke="#F1F2F2" stroke-width="0.25" stroke-miterlimit="10"/>
<path d="M153.3 35.9C153.3 46.1 152.2 55.8 152.2 55.8C156.1 53.5 160.9 46.4 160.9 46.4C164.4 41 169.7 30.8 172.2 25.6C174.7 20.4 175.3 19.5 177.5 19.1C179.7 18.7 180.7 19.7 181.5 22.8C182.3 25.9 176.1 39.3 174.4 42C173.3 43.7 168.6 53.2 168.6 53.2C168.6 53.2 166.3 57.2 166.2 57.4C166.1 57.8 171.7 67.8 173.5 72.3C174.1 73.9 175.1 76 175.8 78C178.4 84.1 172.6 85.6 168.3 81.1C162.9 75.2 158.9 61.6 158.2 62.5C157.4 63.6 153.4 66.2 152.8 66.4C152.1 66.6 151.7 81 151.1 82.3C150.5 83.6 150.4 86.8 144.1 86.3C142.8 86.3 142 85.3 141.5 83.8C142 74.5 142.3 62.5 142.7 60.2C142.7 56.2 142.6 30.1 143.3 25.1C144.9 20.3 150.4 23.4 150.4 23.4C150.4 23.4 152.7 24.4 153.3 35.9Z" fill="#F1F2F2" stroke="#F1F2F2" stroke-width="0.25" stroke-miterlimit="10"/>
<path d="M223.4 39.3C222.7 38.9 221.4 35.3 221 33.9C220.4 32 219.2 30.6 216.1 31.9C215.1 32.9 214.4 34.5 213.8 36.4C212.1 40.5 211.9 49.7 211.8 53.7C211.6 61 212.1 69.8 213.4 73.2C214.1 75.3 215.7 77 219 77.6C224.3 78.3 223 69.5 225.7 67.6C228.4 65.6 231 66.2 232.2 70.8C232.2 78.9 228.8 81.3 228.8 81.3C225.4 85.5 217.3 87.4 209.7 84.6C208.1 84 203.5 81.5 201.6 75.5C200.2 68.8 200.6 58.3 201.3 45.2C202.4 26.2 212.2 22.5 212.2 22.5C212.2 22.5 221.4 17.7 228.4 27C235.4 36.3 231.3 38.2 231.3 38.2C229.2 41.2 225.7 40.4 223.4 39.3Z" fill="#F1F2F2" stroke="#F1F2F2" stroke-width="0.25" stroke-miterlimit="10"/>
<path d="M253.6 32.7C255.1 35.9 253.6 41.5 253.6 45.3C253.6 50 252.1 80.9 252.1 80.9C254.4 83.2 261 83.4 263.3 85.4C265.6 87.4 265.3 90.3 263.3 92C261.3 93.7 261 91.8 248.3 90.1C235.7 88.4 240 79.3 240 79.3C240 79.3 241.3 73.2 242 48.7C242.5 30.3 245.1 28.2 246.9 28.4C251.2 29.1 253.4 32 253.6 32.7Z" fill="#F1F2F2" stroke="#F1F2F2" stroke-width="0.25" stroke-miterlimit="10"/>
<path d="M278.9 40.6C279.2 44.6 279.2 47.8 279.2 64.2C279.2 80.6 280.5 96.7 288.2 93.4C295.9 90.1 295.9 62.8 296.6 51.4C296.6 44.4 305.6 44.6 304.1 58.9C303.3 73.1 302.9 85.1 299.6 93.4C295.8 102.6 288.5 103.8 281 100.4C278.2 98.7 274.6 96.1 271.9 91.2C268.5 85.1 269.2 55.5 270.2 44.9C271.2 34.3 278.6 36.4 278.9 40.6Z" fill="#F1F2F2" stroke="#F1F2F2" stroke-width="0.25" stroke-miterlimit="10"/>
<path d="M329.8 66C331 68.4 331.6 71.6 331.1 77.1C330.2 87.7 326.7 88.8 326.7 88.8C330.9 91.3 331.4 97.4 327.3 108.5C323.2 119.6 309.9 110.5 308.9 110.1C307.9 109.7 310 93.5 309.9 71.6C309.9 60.9 310.6 56.2 311.3 54.3C312 52.3 314 53.4 314.5 53.5C315.8 53.8 317.1 54.3 318.4 55C322.6 57.1 325.5 59.9 327.3 62.2C328.6 63.8 329.4 65.1 329.8 66ZM319.1 62.9C319.1 62.9 317.5 67.5 317.7 83.7C317.7 83.7 325.7 86 325 74.6C324.3 63.2 319.1 62.9 319.1 62.9ZM317.7 89.2C316.2 88.6 316.8 105.1 316.8 105.1C316.8 105.1 321.8 109.5 322.7 101.6C323.6 93.7 323.8 91.8 317.7 89.2Z" fill="#F1F2F2" stroke="#F1F2F2" stroke-width="0.25" stroke-miterlimit="10"/>
<path d="M32.9 48.5C34.4 51.1 33.6 54.1 33.9 57.5C34.3 62.1 33.1 79.7 33.1 79.7C35.5 77.6 43 75.4 43 75.4C43.8 73.3 43.5 63.1 44.2 57.1C44.6 53.4 43.9 49.8 44.5 46.6C44.9 39.8 52.8 37.4 54.5 44.1C56 46.7 53.7 73 53.7 74.7C53.7 76.4 52.8 90.1 52.3 97.5C51.8 104.9 45.8 104.5 43.7 103.7C41.6 102.9 42.3 83.7 42.6 84.5C42.9 85.3 32.5 89.9 32.5 89.9C32.5 89.9 31.8 98.3 31.5 104.3C31.1 110.3 22.3 111.3 22.9 102.1C22.8 95.3 22.8 85.2 23.2 81.3C23.6 77.1 23.1 62 23.5 53.5C25.6 42.6 32.4 47.5 32.9 48.5Z" fill="#F1F2F2" stroke="#F1F2F2" stroke-width="0.25" stroke-miterlimit="10"/>
<path d="M123.9 40.2C120.3 31.7 115.4 32.8 112.9 51.2C110.4 69.7 114.2 79.3 114.2 79.3C118.9 85.1 123.9 79 125.5 74.8C127 70.6 129 69.7 131.1 69.7C133.2 69.7 135.4 71.9 134.5 76C133.5 80.1 132.3 88.6 117.2 90C102.1 91.4 102.3 69.1 102.3 69.1C102 44.6 106.1 31.1 108.6 29.2C111.1 27.3 117.6 22 126.4 29.2C135.2 36.4 131.4 41.4 131.4 41.4C127.9 45.6 123.9 40.2 123.9 40.2Z" fill="#F1F2F2" stroke="#F1F2F2" stroke-width="0.25" stroke-miterlimit="10"/>
<path d="M480.982 134.62C482.334 134.823 484.353 135.171 487.104 135.766C491.94 136.81 494.839 137.526 495.636 137.876C497.564 138.647 498.409 139.983 498.006 141.848C497.64 143.544 496.901 144.538 495.809 144.745C495.439 144.843 494.254 144.675 492.086 144.207C491.67 144.117 491.003 143.972 490.002 143.756C489.002 143.54 488.186 143.275 487.519 143.131C485.852 142.771 484.12 142.308 482.202 141.893C480.618 141.551 479.748 141.54 479.545 141.674C479.323 141.892 478.928 143.315 478.379 145.858C477.408 150.351 476.941 152.912 477.165 153.493C477.305 154.055 477.685 154.315 478.269 154.441C479.019 154.603 480.196 155.213 481.921 156.118C483.561 157.005 484.934 157.922 486.056 158.786C487.243 159.752 488.227 160.852 489.091 162.104C489.937 163.44 490.384 164.601 490.516 165.606C490.518 166.405 490.501 167.289 490.3 168.221C489.585 171.527 487.685 174.666 484.665 177.739C481.561 180.795 478.362 182.677 474.948 183.536C473.551 183.944 472.56 184.085 472.042 184.062C471.422 184.105 470.421 183.889 469.004 183.583C466.17 182.97 463.945 181.957 462.248 180.525C460.467 179.076 459.806 177.691 460.136 176.165C460.557 174.215 461.694 173.396 463.528 173.793C463.862 173.865 464.575 174.196 465.706 174.618C467.133 175.281 468.264 175.703 468.931 175.847C470.848 176.262 473.254 175.628 476.166 173.862C478.995 172.078 480.703 170.229 481.106 168.364C481.29 167.516 481.038 166.663 480.452 165.738C479.133 163.767 476.417 162.204 472.47 161.085C471.47 160.869 470.654 160.604 470.089 160.393C469.505 160.267 468.959 159.971 468.347 159.573C467.735 159.174 467.373 158.83 467.178 158.521C466.881 158.28 466.741 157.717 466.554 156.967C466.367 156.217 466.245 155.569 466.308 154.873C466.371 154.177 466.489 153.226 466.616 151.834C466.724 150.526 466.915 149.237 467.19 147.965C467.465 146.694 467.85 144.914 468.326 142.71L470.056 134.299L471.268 133.94C471.823 133.794 473.379 133.864 475.87 134.047C478.277 134.213 479.981 134.404 480.982 134.62Z" fill="#F1F2F2"/>
</g>
</g>
<defs>
<clipPath id="clip0_1_3">
<rect width="534" height="207" fill="white"/>
</clipPath>
</defs>
</svg>
